<?xml version="1.0" encoding="UTF-8" standalone="no"?>
<svg width="100px" height="28px" viewBox="0 0 100 28" version="1.1" xmlns="http://www.w3.org/2000/svg" xmlns:xlink="http://www.w3.org/1999/xlink" xmlns:sketch="http://www.bohemiancoding.com/sketch/ns">
    <title>Logo grey</title>
    <defs></defs>
    <g id="Page-1" stroke="none" stroke-width="1" fill="none" fill-rule="evenodd" sketch:type="MSPage">
        <g id="Plugin-opened_firstlist-ContentHover" sketch:type="MSArtboardGroup" transform="translate(-334.000000, -858.000000)">
            <g id="Footer" sketch:type="MSLayerGroup" transform="translate(26.000000, 841.000000)">
                <g id="Logo-grey" transform="translate(308.000000, 17.000000)" sketch:type="MSShapeGroup">
                    <path d="M42.4305328,17.6461981 C42.3493466,17.4129715 42.3021876,16.9164727 42.3036254,16.1916061 L42.4126086,13.3213926 C42.4107874,12.6571134 42.386537,12.2336961 42.3229874,12.0062209 C42.2907813,11.8888144 42.2307782,11.7864803 42.1398151,11.7177617 C42.050769,11.6505306 41.939102,11.6187 41.8211087,11.6204849 C41.1625127,11.6204849 40.5184862,11.6958472 39.8892208,11.8486542 C39.6817981,11.8973422 39.5155915,11.9713163 39.3946268,12.0829715 C39.2732788,12.1939326 39.2052242,12.3516977 39.207908,12.5193788 C39.2132757,12.5950386 39.2343631,12.6302408 39.2682945,12.7188907 C39.302226,12.8031775 39.3543692,12.9122545 39.4213694,13.0533605 C39.5541238,13.3263506 39.6702959,13.6047945 39.7729529,13.8899814 C39.8648745,14.1401645 39.9218103,14.7910569 39.9194141,15.792285 C39.9218103,16.7937114 39.8507844,17.4462896 39.738638,17.6964727 C39.6196863,17.9673804 39.4386227,18.1668922 39.184041,18.3085932 C38.9249543,18.4510875 38.6454512,18.5235741 38.3418893,18.5235741 C37.912762,18.5164345 37.649937,18.3302103 37.4740494,17.8992568 C37.3017084,17.4689974 37.2055693,16.5318273 37.2055693,15.1280058 L37.1653116,13.3478685 C37.1608066,12.6591958 37.1199738,12.2327045 36.9867402,11.9997755 C36.8328985,11.7613926 36.5314453,11.682163 36.1110405,11.6807747 C35.6073406,11.6807747 35.201601,11.69079 34.8945885,11.7091347 C34.5861382,11.7295619 34.3808242,11.753658 34.2517122,11.8016519 C34.0180261,11.8784025 33.8542158,12.0632385 33.8588167,12.2981508 C33.860542,12.5344513 34.0076742,12.738227 34.2452901,12.9159235 C34.4523295,13.0732919 34.5699393,13.2408739 34.6181527,13.4270981 C34.7408426,13.9004925 34.807747,14.789272 34.80583,16.0709273 C34.807747,17.3667625 34.9532497,18.282018 35.277132,18.8372202 C35.756198,19.6507366 36.5085368,20.0699891 37.4740494,20.0699891 L37.7120488,20.0699891 C38.1857472,20.0680058 38.7105344,19.8824757 39.2930242,19.5233148 L39.6543845,19.2835436 C39.7143876,19.3024833 39.8132105,19.3853819 39.9194141,19.582018 C40.0716263,19.8633376 40.3546759,20.0112858 40.6970576,20.0094017 C41.3896809,20.0094017 42.0687891,19.8633376 42.7322735,19.5734902 C43.0190613,19.4540013 43.1893895,19.1944971 43.1828716,18.8755955 C43.1728072,18.6893712 43.0482002,18.5358701 42.840394,18.3136504 C42.6493619,18.1142377 42.5133486,17.8935055 42.4305328,17.6461981 Z" id="Fill-2" fill="#B0B0B0"></path>
                    <path d="M57.1868397,18.322674 C56.9790336,18.1241538 56.8492506,17.9329715 56.7848384,17.7531927 C56.7587667,17.6831851 56.7279984,17.4490661 56.7116078,17.09288 C56.6918624,16.7351073 56.6825648,16.2472354 56.6825648,15.6278762 C56.6825648,14.3781508 56.5659134,13.5289364 56.2978167,13.0447335 C56.0436184,12.5917663 55.7323884,12.2556107 55.3609637,12.051835 C55.002383,11.8537114 54.66211,11.7495924 54.3396654,11.7495924 L54.0035141,11.7495924 C53.6257631,11.7514765 53.1572408,11.9474185 52.5654533,12.319867 C52.2771319,12.502819 52.0499637,12.6392644 51.8891248,12.7293026 C51.8081303,12.7748174 51.7453475,12.807838 51.6995305,12.8282652 C51.6770054,12.8382804 51.6573558,12.8448251 51.6476748,12.8501797 L51.6396233,12.8501797 C51.6248621,12.8486923 51.5781824,12.8350081 51.5162623,12.8031775 C51.4416898,12.7676778 51.3410457,12.7094704 51.2177806,12.6317282 C50.9598441,12.4687076 50.7056458,12.3434673 50.4538438,12.2592797 C50.1932234,12.1706298 49.8429819,12.1322545 49.396793,12.1314612 C48.9397728,12.1314612 48.4645408,12.2423231 47.9748353,12.459089 C47.7362608,12.5639021 47.5568267,12.643925 47.4349035,12.6955878 C47.3734627,12.7206756 47.3276457,12.7407061 47.2956312,12.7543903 C47.2892092,12.7567701 47.2842249,12.7575634 47.2791448,12.7610341 C47.2696555,12.7558777 47.2536483,12.744375 47.2308356,12.7174032 C47.1930701,12.6738716 47.1482116,12.5917663 47.1010526,12.4781279 C46.9939864,12.2261599 46.8982307,12.0582804 46.7668183,11.9617968 C46.6793058,11.9057709 46.5770322,11.8896077 46.4213693,11.869478 C46.2676234,11.8537114 46.0683481,11.8451836 45.8183672,11.8451836 C45.313613,11.8451836 44.9215802,11.9057709 44.633067,12.0384482 C44.4935072,12.1031012 44.3867285,12.1673575 44.3069801,12.2394475 C44.2275191,12.3094551 44.1660783,12.3994932 44.1660783,12.5093636 C44.1710626,12.6453132 44.2406508,12.8050615 44.3703379,13.0865794 C44.5649166,13.487388 44.6797467,14.5456336 44.6770629,16.1963659 C44.6770629,16.9615909 44.6523332,17.4746496 44.6069954,17.7126359 C44.5663543,17.9361447 44.4370506,18.1611408 44.2081571,18.3890127 C43.9489745,18.6438563 43.8043346,18.9272583 43.8043346,19.2314841 C43.8043346,19.2531012 43.8105649,19.2768006 43.8224505,19.296732 L43.9567385,19.5297602 L43.9764839,19.5549471 C44.2841674,19.8644284 44.9006845,19.9775711 45.855941,19.9828266 L46.1750308,19.9828266 C46.5139619,19.9819341 46.7730486,19.9458395 46.9644641,19.8594704 C47.1573175,19.7780592 47.2908387,19.6085932 47.2874839,19.4038258 C47.2856627,19.3735817 47.282883,19.3621782 47.2758858,19.319539 C47.2599745,19.2010417 47.2179915,18.9376702 47.1510871,18.5249624 C47.0639581,17.9914765 47.0182369,17.0136504 47.0182369,15.6060608 C47.0164157,14.9115375 47.1108295,14.4253514 47.2682177,14.163864 C47.5595105,13.6891805 47.8759165,13.4788601 48.2359349,13.4773727 C48.6169448,13.4859997 48.8162201,13.6219494 48.9352678,13.9335131 C49.110101,14.4182118 49.2040355,15.1522011 49.2040355,16.1263582 C49.2040355,17.1051759 49.176622,17.7266176 49.1311883,17.9531012 C49.0826874,18.196343 49.0177001,18.4008129 48.9397728,18.568494 L48.7126046,19.0550768 C48.7043614,19.0733224 48.7015817,19.0901797 48.7015817,19.1102103 C48.6979393,19.348494 48.773087,19.5549471 48.9526169,19.6492492 C49.0597789,19.6994246 49.2090198,19.7144971 49.4682982,19.7346267 C49.7229758,19.7496992 50.0681372,19.7578304 50.5078082,19.7578304 C51.3927097,19.7553514 51.9494155,19.7127122 52.2314107,19.5960989 C52.3608103,19.5411637 52.4666304,19.4759158 52.5445577,19.3925215 C52.6219099,19.3100196 52.6690689,19.2010417 52.6677269,19.0883948 C52.6660016,18.880851 52.5623861,18.6400882 52.3773926,18.3236656 C52.2106109,18.0394704 52.1245362,17.7061904 52.1228109,17.3144055 C52.1213731,15.5995161 52.1968083,14.5276855 52.3257286,14.1656489 C52.4552241,13.8113468 52.6900603,13.6503094 53.1360576,13.6427732 C53.5872308,13.6470371 53.8675007,13.7995466 54.0443468,14.1131927 C54.2275191,14.4387381 54.3263421,14.9219494 54.3263421,15.5607442 L54.2761159,16.3176397 L54.2586709,16.7024833 L54.2586709,16.7132919 L54.2921231,17.4415299 C54.2989285,17.5873956 54.3003663,17.8497755 54.3003663,18.2260913 C54.3003663,18.5975482 54.2843591,18.8680592 54.2567539,19.0267167 C54.2256979,19.204314 54.209499,19.2997068 54.2077737,19.3621782 C54.2047065,19.559211 54.3250002,19.7306603 54.5063513,19.8150463 C54.6877982,19.9022087 54.9295358,19.9391958 55.2455584,19.9391958 C55.8632257,19.9391958 56.3904092,19.8705764 56.8282591,19.729272 C57.0470882,19.6588678 57.2194293,19.5748784 57.3452823,19.4691729 C57.4684516,19.3635665 57.5485835,19.2228571 57.5468581,19.065687 C57.5485835,18.7969608 57.4154457,18.5453895 57.1868397,18.322674" id="Fill-10" fill="#B0B0B0"></path>
                    <path d="M72.7076144,12.0912913 C72.4658768,11.8590564 72.1838816,11.7359977 71.876965,11.7374851 L71.7441147,11.7374851 C71.3018557,11.73927 70.8172303,12.0292166 70.2519937,12.5698421 C70.1541293,12.6656315 70.0743808,12.7371266 70.0175408,12.781154 C69.9883061,12.8030686 69.9672188,12.8185377 69.9525535,12.8260739 C69.9379841,12.8152654 69.9039568,12.781154 69.8665746,12.7172944 C69.8197991,12.6398497 69.7674642,12.5214515 69.7143624,12.3666613 C69.5825665,11.9775537 69.3251093,11.7323287 68.9862741,11.7374851 L68.8351162,11.7374851 C68.1719193,11.7374851 67.5382448,11.8590564 66.9382141,12.1017032 C66.7806342,12.1651662 66.6562188,12.2390411 66.5636263,12.3294759 C66.4729507,12.4181258 66.4143854,12.5357307 66.4162066,12.6617642 C66.4224369,12.8730762 66.5618051,13.0692166 66.7990377,13.3193996 C67.0224676,13.5505438 67.1698873,13.7769282 67.2496358,13.9968672 C67.2836631,14.0901777 67.3193198,14.3266765 67.3384901,14.6749298 C67.3595775,15.0234805 67.3706963,15.4907269 67.3706963,16.0749832 C67.3724216,17.2379427 67.3228663,17.9690564 67.2451307,18.2012913 C67.1618357,18.4509786 67.0133617,18.6555476 66.7824553,18.8228321 C66.5215474,19.0151052 66.3612836,19.218881 66.3565869,19.4614286 C66.3530404,19.6352578 66.4454413,19.7955019 66.5958324,19.8774088 C66.7432521,19.9620922 66.9382141,19.9939229 67.1846484,19.9950137 L67.3422284,19.9950137 L68.3679357,19.9788504 C69.1968599,19.9788504 69.8197991,19.9437475 70.2465302,19.8751281 C70.4580745,19.8400251 70.6220765,19.7968901 70.7458209,19.7370961 C70.8052488,19.7058604 70.8575838,19.671749 70.8995668,19.6244492 C70.9418373,19.5780419 70.9709762,19.5117032 70.9692508,19.4438771 C70.9626371,19.1923058 70.7943218,18.9407345 70.4957442,18.6133051 C70.2054099,18.3064019 70.03489,18.0752578 69.9965493,17.9728245 C69.8453915,17.6017642 69.7629591,16.9953951 69.7629591,16.1658146 C69.7611379,15.3358375 69.8517177,14.7548535 70.0093935,14.4465621 C70.2473928,13.9713829 70.5221992,13.7711769 70.8638141,13.7689954 C70.9754812,13.766913 71.1652672,13.8244263 71.410743,13.9466918 C71.6727053,14.0758985 71.8346944,14.1466003 71.9712829,14.1504675 C72.2799249,14.1511617 72.5537727,14.0323668 72.7645503,13.8039992 C72.9751361,13.5761273 73.0841193,13.2842967 73.0822981,12.9569664 C73.0841193,12.6228932 72.9521317,12.3245179 72.7076144,12.0912913" id="Fill-11" fill="#B0B0B0"></path>
                    <path d="M80.9290318,18.6009206 C80.8421903,18.5269465 80.7264016,18.4648718 80.5808031,18.4096391 C80.3226749,18.3123622 80.1577144,18.1782967 80.0660803,18.0121029 C80.0297526,17.9461609 79.985565,17.766977 79.95911,17.5008291 C79.9334218,17.2334912 79.9188524,16.8764126 79.9188524,16.4300892 C79.9188524,16.3012791 79.9243159,16.1434149 79.9315048,15.9605621 C79.9398438,15.774437 79.9460742,15.5943607 79.9535506,15.4199366 L79.9611229,15.2219122 L79.9611229,15.2172516 C79.9611229,15.078823 79.9646694,14.945154 79.9689827,14.8146582 L79.9772259,14.6151464 L79.9772259,14.6084034 C79.9772259,13.6357337 79.7357759,12.8823089 79.2336097,12.3791662 C78.7299098,11.8807833 78.0135153,11.6364507 77.1059929,11.637244 C76.1991414,11.637244 75.3785564,11.848556 74.6558357,12.2750472 C73.9405915,12.6957871 73.5412739,13.1589679 73.5384942,13.695032 C73.5365772,13.9473966 73.6117248,14.1643607 73.7737139,14.3075491 C73.9341694,14.4507375 74.1575994,14.5103333 74.4314472,14.5113249 C74.8180165,14.5074576 75.1989306,14.237244 75.6074499,13.7460007 C75.9931565,13.2780602 76.3392764,13.0681365 76.6196422,13.0718054 C76.9372942,13.072797 77.1656126,13.1638268 77.3356532,13.3451922 C77.506269,13.5263592 77.5942607,13.7721792 77.5942607,14.110913 C77.5922478,14.4472669 77.4971631,14.6366643 77.3113069,14.751096 C77.0957368,14.881691 76.8027186,15.0040556 76.4354155,15.1116452 C75.3428037,15.4199366 74.543977,15.7913935 74.0330882,16.2387086 C73.5237331,16.6840404 73.2589911,17.2439031 73.2609082,17.8879534 C73.2589911,18.5245667 73.4853925,19.0670762 73.9259262,19.4782967 C74.3591752,19.885749 74.8500309,20.0951769 75.3802817,20.0951769 L75.3830614,20.0951769 C75.891458,20.0951769 76.2587611,20.050257 76.5069208,19.9425682 C76.7313092,19.8455888 76.9695003,19.7255049 77.2267659,19.582019 C77.4722417,19.4432928 77.6518675,19.3807223 77.7060236,19.3849862 C77.7170465,19.3827055 77.7836633,19.4006536 77.8725177,19.4509282 C77.9632891,19.5015003 78.0822409,19.5805316 78.2242929,19.6859397 C78.5329349,19.9166872 78.8700447,20.0364736 79.2217241,20.0358786 C79.5734034,20.0350854 79.9626565,19.9242234 80.3877581,19.7115232 C80.6009319,19.6015537 80.770685,19.4849404 80.8887741,19.3504782 C81.0066715,19.2167101 81.07741,19.0594408 81.07741,18.8936437 C81.07741,18.7771296 81.0150106,18.6747955 80.9290318,18.6009206 L80.9290318,18.6009206 L80.9290318,18.6009206 Z M76.1423015,18.5496544 C76.0306344,18.5488611 75.9171462,18.4932318 75.7906222,18.3422097 C75.6678363,18.1948565 75.6120507,18.0389755 75.6111881,17.8531479 L75.6111881,17.5840251 C75.6111881,17.2837658 75.7797909,16.96536 76.1588838,16.6262295 C76.5352928,16.2941395 76.9439079,16.1335979 77.4072543,16.1315156 L77.508186,16.1315156 C77.5445137,16.1362753 77.5437469,16.1382585 77.5567827,16.1534301 C77.5694351,16.1732623 77.5867843,16.227305 77.5867843,16.3177398 L77.5867843,16.7706079 L77.5795954,16.8517215 L77.5776784,16.8649099 C77.5812249,17.4315156 77.4979299,17.8125911 77.373227,17.9878085 C77.0976538,18.3858405 76.786328,18.5658176 76.4097273,18.5672059 L76.2311559,18.5672059 L76.1679897,18.5535217 L76.1423015,18.5496544 L76.1423015,18.5496544 Z" id="Fill-12" fill="#B0B0B0"></path>
                    <path d="M90.8735118,18.1479113 C90.639059,17.9621829 90.506017,17.7945017 90.4649926,17.6722363 C90.2672508,17.1189182 90.1618141,16.2590936 90.1634436,15.1044636 C90.1598971,13.9323812 90.0434375,13.1514887 89.7631675,12.7256916 C89.3829245,12.1509548 88.7850025,11.8614048 88.0203947,11.864578 C87.5348108,11.864578 87.1235118,11.9287351 86.7837181,12.0627016 C86.4615611,12.1926024 86.1682553,12.3314277 85.9035134,12.4767977 C85.6717443,12.6104666 85.4996908,12.6748221 85.4546406,12.679086 C85.4336491,12.6650051 85.3705788,12.5635635 85.320065,12.389536 C85.2360032,12.1300318 85.164498,11.9595742 85.0543645,11.853472 C84.9639765,11.7794979 84.862949,11.7662103 84.7011516,11.7443949 C84.5416546,11.725356 84.3307812,11.7174231 84.0616301,11.7174231 C83.5184394,11.7174231 82.9835878,11.8027016 82.4577462,11.973655 C82.2994953,12.0238305 82.1684662,12.1024651 82.0733815,12.2154094 C81.9818433,12.3262714 81.9359304,12.4701539 81.9359304,12.6245475 C81.9394769,12.685234 81.9569219,12.7137923 81.9750378,12.7540517 C82.0366703,12.8643186 82.1593603,13.032099 82.3591149,13.2790097 C82.5833117,13.5456535 82.7289102,14.2572325 82.7243093,15.374578 L82.7081104,15.899536 C82.7081104,16.4708022 82.6977584,16.9233728 82.683189,17.2602225 C82.6678528,17.5949899 82.6402475,17.819292 82.6117796,17.9025871 C82.5569525,18.0854399 82.4064656,18.2872325 82.1436407,18.4941813 C81.8514852,18.7241356 81.6828823,19.0092233 81.6848952,19.3282241 C81.6814445,19.5058213 81.7820886,19.6669579 81.9359304,19.7474765 C82.0914974,19.8297801 82.2939359,19.8620074 82.554077,19.8630982 L82.766484,19.871626 L83.2491924,19.871626 C84.0297115,19.871626 84.6178566,19.8355315 85.0188036,19.7607641 C85.2194209,19.7223888 85.3752755,19.6772706 85.4932688,19.6123202 C85.6057985,19.5513362 85.7028961,19.4508862 85.7028961,19.3116642 C85.6993496,19.237591 85.6772079,19.1968358 85.6460561,19.1182012 C85.6132749,19.042938 85.566691,18.9467519 85.5051544,18.8264697 C85.3851482,18.5971104 85.2845041,18.3384987 85.2027427,18.0478579 C85.12702,17.7844865 85.0819698,17.0497039 85.0819698,15.8942805 C85.0819698,15.3157756 85.0966351,14.8542805 85.1242403,14.5122744 C85.1498327,14.1728465 85.1972792,13.9464621 85.2360032,13.8710997 C85.4317321,13.4803064 85.7498633,13.2940822 86.2674617,13.2887275 C86.5768705,13.2887275 86.8003004,13.3299785 86.934876,13.3982012 C87.1539926,13.5053942 87.3643868,13.7569655 87.551489,14.1739373 C87.7298687,14.5640364 87.8317589,15.4039296 87.8305128,16.6527626 C87.8305128,17.2799556 87.8159434,17.7776444 87.7874755,18.1447382 C87.7617873,18.5089563 87.7152993,18.7511074 87.674179,18.8283537 C87.6189685,18.9458595 87.5751643,19.0339144 87.5474632,19.0955925 C87.534044,19.126729 87.5218709,19.1519159 87.5155447,19.1703598 C87.5112313,19.1806726 87.5072056,19.1884071 87.5045217,19.1968358 C87.5028923,19.2092309 87.4974287,19.2053637 87.4945532,19.2508785 C87.4918693,19.4006116 87.5834076,19.5369579 87.7152993,19.5982393 C87.8483412,19.6635864 88.0148354,19.6886741 88.2291594,19.6905582 C89.3426668,19.6886741 90.1847226,19.6033957 90.7697046,19.4233194 C90.9291057,19.3759205 91.0602306,19.29798 91.1510021,19.1836474 C91.2413901,19.0698106 91.2872071,18.9222592 91.2855776,18.7651882 C91.2808809,18.5384071 91.1253138,18.3517862 90.8735118,18.1479113" id="Fill-13" fill="#B0B0B0"></path>
                    <path d="M99.5698447,18.6050048 C99.481764,18.5300391 99.3673263,18.468956 99.2208767,18.4137233 C98.9615228,18.3164465 98.7977254,18.1823809 98.7069612,18.0161871 C98.6706363,17.9502451 98.6248229,17.7710613 98.6008619,17.5049133 C98.5743131,17.2375754 98.5597448,16.8804968 98.5597448,16.4341734 C98.5597448,16.3053633 98.5641536,16.1474991 98.5723962,15.9646463 C98.5807346,15.7785212 98.5869645,15.5984449 98.5936736,15.4240208 L98.6008619,15.2259964 L98.6008619,15.2194518 C98.6008619,15.0838988 98.6055582,14.9492382 98.6098712,14.8187424 L98.6182096,14.6192306 L98.6182096,14.6124877 C98.6202223,13.6398179 98.3766827,12.8878805 97.8717766,12.3832504 C97.3716626,11.8848675 96.6549412,11.6413282 95.7471068,11.6413282 C94.8405184,11.6413282 94.0198063,11.8526402 93.2970467,12.2791314 C92.5799419,12.6998713 92.1836269,13.1630521 92.1781638,13.6991162 C92.1761511,13.9514808 92.2531138,14.1684449 92.413365,14.3124266 C92.575533,14.4548217 92.7989454,14.5154091 93.0729634,14.5154091 C93.4581604,14.5115418 93.8394278,14.2413282 94.2467648,13.7500849 C94.6323452,13.2821444 94.977767,13.0722207 95.2600276,13.0758896 C95.5777505,13.0768812 95.8066259,13.167911 95.9768449,13.3492764 C96.1473513,13.5304434 96.234186,13.7762634 96.2361029,14.1149972 C96.2332276,14.4513511 96.1373836,14.6419385 95.9530755,14.7551803 C95.7372349,14.8857752 95.4438564,15.0081398 95.0756237,15.1157295 C93.9838648,15.4259049 93.1846216,15.7954777 92.6742524,16.2427928 C92.165129,16.6881246 91.9014622,17.2479873 91.9022289,17.8920376 C91.9014622,18.5277584 92.1256413,19.0703671 92.5672905,19.4823809 C93.0003136,19.8898332 93.4913224,20.0992611 94.0213398,20.0992611 L94.0252694,20.0992611 C94.5325716,20.0992611 94.9008043,20.0543412 95.1490402,19.9466524 C95.3704399,19.849673 95.6104333,19.7295891 95.8678702,19.5861032 C96.1132309,19.447377 96.2909256,19.3848065 96.3449817,19.3890704 C96.3581123,19.3867897 96.4248197,19.4047378 96.5135713,19.4550124 C96.6043355,19.5055845 96.7224153,19.5846158 96.8653187,19.6900239 C97.1731697,19.9200773 97.5091029,20.0399629 97.8626714,20.0399629 C98.2164316,20.0391696 98.602012,19.9283076 99.0286136,19.7156074 C99.2437834,19.6056379 99.4103603,19.4890246 99.5295902,19.3545624 C99.6475742,19.2213893 99.7174444,19.063525 99.7174444,18.8977279 C99.7174444,18.7812138 99.6558167,18.6788797 99.5698447,18.6050048 L99.5698447,18.6050048 L99.5698447,18.6050048 Z M96.2270935,16.321824 L96.2270935,16.7746921 L96.220672,16.8558057 L96.2186593,16.8689941 C96.220672,17.4355998 96.1389171,17.8166753 96.0146074,17.9918927 C95.7386725,18.3899247 95.4273712,18.5699018 95.0510877,18.5712901 L94.8715719,18.5712901 L94.8092733,18.5562176 L94.7815744,18.5537386 C94.6700119,18.5529453 94.5582578,18.497316 94.4318396,18.3462939 C94.3082967,18.1989407 94.2516529,18.0430597 94.2516529,17.8572321 L94.2516529,17.5881093 C94.2495443,17.28785 94.4208175,16.9684526 94.8000722,16.6303137 C95.1746306,16.2982237 95.5848429,16.1376822 96.0483445,16.1355998 L96.1481181,16.1355998 C96.1868391,16.1403595 96.1832928,16.1423427 96.1978611,16.1575143 C96.2104167,16.1773465 96.2289146,16.2313893 96.2270935,16.321824 L96.2270935,16.321824 L96.2270935,16.321824 Z" id="Fill-14" fill="#B0B0B0"></path>
                    <path d="M63.705429,19.7905535 C62.4923319,19.6929791 61.8004754,19.6266405 61.663887,19.5999662 C61.4095928,19.5455268 61.220957,19.4711561 61.1078522,19.3873651 C60.9944598,19.3033758 60.9554482,19.2247411 60.9541063,19.1271668 C60.9541063,18.9074261 61.0804386,18.7159463 61.3950234,18.5378533 C61.4089219,18.5281355 61.4434284,18.5150463 61.4897247,18.5008662 L61.6346523,18.5008662 C61.6346523,18.5004696 62.5997128,18.4345277 62.5997128,18.4345277 C63.2140247,18.4038653 63.9333973,18.2794985 64.5093834,17.9773081 C65.0853696,17.6751178 65.342447,17.2848908 65.4493248,16.5589705 C65.5562027,15.8330502 65.5562027,14.9177219 65.5562027,14.9177219 C65.5562027,14.1423764 65.445477,13.5731572 65.3403904,13.1389452 C65.0864974,12.3600172 64.9178546,11.9746996 63.5097337,11.5729954 C63.5097337,11.5729954 62.3151981,11.4223225 61.6346522,11.476666 C60.9541063,11.5310094 60.3664232,11.6754283 60.3664232,11.6754283 C59.2175017,11.9530056 58.9809242,12.7137557 58.787603,13.1389452 C58.6253263,13.5722948 58.6157094,14.8624586 58.6157094,15.4799751 C58.6157094,16.0974917 58.717698,16.8523373 58.717698,16.8523373 C58.8799747,17.4534673 59.018576,17.7078762 59.4701327,18.0733834 C59.3825243,18.1757175 59.2746914,18.2955039 59.1428955,18.4345276 C58.7292002,18.8788678 58.5053869,19.2247411 58.5008818,19.5332309 C58.498869,20.0212019 58.667376,20.47169 58.9934629,20.8716061 C59.1491258,21.0629868 59.2660647,21.212224 59.3402538,21.3166405 C59.3791695,21.3690966 59.4065831,21.4102484 59.4248907,21.4387076 C59.4117591,21.4884864 59.3631623,21.5724757 59.2934783,21.6783796 C59.1977226,21.8262286 59.0599839,22.0296077 58.8799747,22.2891119 C58.4894755,22.8528418 58.28512,23.339028 58.2831071,23.7606603 C58.2831071,24.1642453 58.4307185,24.5590051 58.717698,24.9346267 C59.5091442,25.998227 60.7882831,26.5231851 62.5170616,26.5231851 L62.8724791,26.5231851 C64.3282724,26.5231851 65.535906,26.1209883 66.4770723,25.3146115 C67.2417759,24.6560836 67.6293996,23.7759311 67.6276743,22.7027122 C67.6331378,21.6259235 67.1543593,20.8100272 66.2316924,20.3148174 C65.7648953,20.060073 64.9314661,19.8917968 63.705429,19.7905535 L63.705429,19.7905535 L63.705429,19.7905535 Z M65.6289778,23.4398746 C65.6271567,23.8241233 65.3999885,24.1642453 64.8912085,24.4750157 C64.3819492,24.7802331 63.7833563,24.9346267 63.0908289,24.9346267 L62.5024921,24.9346267 C61.8212752,24.9346267 61.2649528,24.7868769 60.8244191,24.4979219 C60.3766007,24.2031164 60.1786673,23.9004772 60.1786673,23.5883186 L60.1786673,23.3864269 C60.1805843,23.0813087 60.3184188,22.830134 60.6261023,22.6026588 C60.9298558,22.3805383 61.3493022,22.2654124 61.8941224,22.2654124 L62.9964152,22.2654124 L63.7105092,22.2958548 L63.8707729,22.3166786 L63.8836171,22.3174719 C64.4708036,22.3174719 64.9072157,22.4304162 65.1970708,22.6396458 C65.4956483,22.8577999 65.6271567,23.0928113 65.6289778,23.3759158 L65.6289778,23.4398746 L65.6289778,23.4398746 Z M63.7500001,15.3485675 C63.7500001,15.7279811 63.6184652,16.0350789 63.2946391,16.3596754 C62.9931009,16.6618636 62.5873092,16.6294066 62.1217684,16.6294066 L61.9648237,16.6294066 C61.0449792,16.6294066 60.5978261,16.2104081 60.5978261,15.3485676 L60.5978261,14.8978548 L60.6500172,14.4470494 C60.6500172,14.1377313 60.7604357,13.8959622 60.9785795,13.7282702 C61.2913545,13.4868715 61.637933,13.3695519 62.0380027,13.3695519 L62.2577253,13.3695519 C62.6129404,13.3695519 63.0443634,13.523123 63.2946391,13.7282702 C63.6740924,14.0349031 63.7358844,14.7209032 63.7500001,14.7915542 L63.7500001,15.3485675 L63.7500001,15.3485675 Z" id="Fill-16" fill="#B0B0B0"></path>
                    <path d="M30.1011203,11.2933283 C28.5409572,11.4024256 28.1877144,12.0646487 28.1316346,12.091253 C28.0929679,12.0756022 28.0046145,12.0334494 27.8169604,11.9205738 C27.5517953,11.7606194 27.225883,11.6929188 26.8482256,11.7193272 C25.8092262,11.7919811 25.3011958,12.0964933 25.3428637,12.6924687 C25.3590864,12.9245013 25.5425187,13.0118704 25.7470257,13.6084818 C25.8823589,14.0036213 26.1704495,14.4526584 26.2554218,15.6678189 L26.3267677,16.6881117 L26.4018552,17.7619132 C26.4626326,18.63107 26.4177931,19.3528547 26.4069899,20.3458009 C26.3962137,21.3336156 26.4090278,21.6484884 26.3423488,22.1219976 C26.2756697,22.5955068 26.0433809,23.584934 25.9848856,23.8351685 C25.9202784,24.1116391 25.8900946,24.3432655 25.9114896,24.6492291 C25.94303,25.1002782 26.0914092,25.2661147 26.3966826,25.3930191 C26.7019559,25.5199234 27.9224593,25.4450277 27.9224593,25.4450277 C29.0452973,25.3665113 29.0088189,24.6355713 28.9895732,24.3603444 C28.981748,24.2484395 28.9127847,23.9035775 28.6363246,23.2853073 C28.4515554,22.8716633 28.4204875,21.0465949 28.6407839,20.6938266 C28.8664726,20.3324234 29.5954309,20.2272039 30.350813,20.2984478 C31.5731529,20.3638658 32.3206702,19.7882462 32.8169904,18.9150361 C33.3133105,18.041826 33.6025821,16.8962868 33.4990927,15.4163194 C33.4452369,14.646146 33.3102538,13.9680486 33.0978339,13.4006045 C32.5180328,11.856881 30.8985326,11.2375678 30.1011203,11.2933283 L30.1011203,11.2933283 L30.1011203,11.2933283 Z M31.2805862,16.1735805 C31.2906322,16.7491159 31.1609928,17.2930878 30.8954132,17.7902565 C30.6481109,18.2531045 30.2213064,18.3965589 29.8271466,18.403439 L29.6942661,18.4057584 C28.9154606,18.4193525 28.525775,17.7903787 28.5029554,16.483046 L28.4910215,15.7993563 L28.5079697,15.2788484 L28.5225582,15.1323302 L28.5232739,15.1147548 C28.5150839,14.6455477 28.6021705,14.2771744 28.7824264,14.0195773 C29.0408522,13.6487753 29.3311837,13.4656903 29.6699111,13.4597778 L29.8559438,13.4565306 C30.156694,13.451281 30.5132192,13.5838149 30.7305522,13.8913056 C31.0599432,14.3508316 31.2411331,14.9316612 31.2497081,15.4229205 C31.2508163,15.4864085 31.2580862,15.5694593 31.2719082,15.6764218 L31.2805862,16.1735805 L31.2805862,16.1735805 Z" id="Imported-Layers" fill="#B0B0B0"></path>
                    <g id="Fill-17-+-Path">
                        <path d="M22.0810375,10.2513456 C20.5125013,8.22871704 17.7719565,6.50125319 14.7405873,6.35542495 C13.8057992,6.35542499 13.7282675,5.30441481 13.9578778,4.87694884 C14.077029,4.65512471 14.4632091,4.37787904 15.0227422,3.87248167 C15.1737222,3.73610922 15.9143199,2.99189919 15.7030508,2.77031274 C15.4397052,2.59776529 13.9588066,3.98609264 13.8565063,3.87248178 C13.6109725,3.70304443 13.9323805,3.10450008 14.3618376,2.40259583 C14.7912948,1.70069158 14.5268534,0.226957896 14.1927806,0.714061934 C14.0306722,2.17159102 12.7005536,2.56739079 12.3227327,3.87248173 C11.3357544,1.48633875 9.78990638,0.916257122 9.78990638,0.916257122 C9.16257112,0.916257124 10.666756,2.59260096 10.772307,3.29914932 C10.877858,4.00569767 10.4251364,3.87248178 10.2565256,3.75887103 C10.022238,3.5734756 8.23550017,2.40259586 7.88172459,2.48728514 C7.158296,2.77031273 9.65111774,3.94923997 9.91924543,4.87694884 C9.91924543,4.87694884 10.2565257,6.20959674 8.80484602,6.3554247 C6.13455842,6.71971023 3.86222479,7.52337606 2.04677751,9.92470227 C0.603804863,11.832982 0,14.377102 0,16.887657 C0,22.0633181 1.64350771,23.8210289 7.36022364,26.647513 C8.54171248,27.2301612 11.4532287,27.7043392 13.6186042,27.6370194 C17.1853422,27.525515 18.6523278,26.2578166 20.6106609,24.5020969 C23.2475871,22.1399299 23.9684318,19.5908794 23.6548895,16.1139532 C23.4477555,13.8233729 23.3098189,11.8379124 22.0810375,10.2513456 Z M15.2524505,18.1840546 L15.2524505,17.0533935 C15.2220822,16.9099816 15.0891439,15.5174951 14.2727941,14.8950723 C13.734355,14.4786514 12.8061985,14.1669231 12.0419944,14.1669231 L11.5692868,14.1669231 C10.9378698,14.1669231 10.3683863,14.2950862 9.84411385,14.5568293 C9.75715908,14.7746458 9.61953868,15.050176 9.61953868,15.3194925 L9.50725563,16.2345659 L9.50725563,17.1494512 C9.50725563,18.8988699 10.3929427,19.8029892 12.3718815,19.8029892 L12.8717836,19.8029891 C13.6254811,19.8029891 14.3143569,19.7552482 14.8816652,19.5123125 C15.1397989,19.0974682 15.2524505,18.6699793 15.2524505,18.1840546 Z" id="Fill-17" fill="#B0B0B0"></path>
                        <path d="M14.1725625,20.4999176 C13.5238382,21.1133184 12.6508242,21.0474352 11.6492674,21.0474352 L11.3116191,21.0474352 C9.18924082,21.047435 8.25915303,19.9597539 8.25915303,18.2103352 L8.25915303,17.2954498 L8.37143608,16.3803764 C8.37143608,15.7525029 8.82074955,15.190887 9.29006073,14.8504951 C9.46931725,14.7199602 9.67668369,14.6415158 9.86706283,14.546469 C9.78010806,14.7642855 9.71345307,14.974158 9.71345307,15.2434745 L9.60117002,16.1585479 L9.60117002,17.0734332 C9.60117002,18.8228519 10.3912354,19.6733619 12.5421069,19.6733617 L12.8797552,19.6733617 C13.6334526,19.6733617 14.3170435,19.7317263 14.8843518,19.4887907 C14.7333611,19.7314466 14.4296759,20.2567501 14.1725625,20.4999176 Z" id="Path" fill="#D2D2D2"></path>
                    </g>
                </g>
            </g>
        </g>
    </g>
</svg>
