<svg width="100" height="28" viewBox="0 0 100 28" xmlns="http://www.w3.org/2000/svg"><title>Logo grey</title><g fill="none" fill-rule="evenodd"><path d="M42.43 17.646c-.08-.233-.128-.73-.126-1.454l.11-2.87c-.003-.665-.027-1.088-.09-1.316-.033-.117-.093-.22-.184-.288-.09-.067-.2-.1-.32-.098-.657 0-1.302.076-1.93.23-.208.047-.374.12-.495.233-.122.11-.19.27-.187.436.005.075.026.11.06.2.034.083.086.192.153.333.134.273.25.552.353.837.092.25.15.9.146 1.902.002 1.002-.07 1.654-.18 1.904-.12.27-.3.47-.556.613-.26.14-.54.214-.842.214-.43-.008-.692-.194-.868-.625-.172-.43-.268-1.368-.268-2.772l-.04-1.78c-.005-.69-.046-1.115-.18-1.348-.153-.24-.455-.318-.875-.32-.503 0-.908.01-1.215.03-.31.02-.514.044-.643.092-.234.076-.398.26-.393.496 0 .236.148.44.385.618.207.157.325.325.373.51.123.474.19 1.363.188 2.645.002 1.297.147 2.212.47 2.767.48.814 1.233 1.233 2.198 1.233h.238c.474-.002 1-.188 1.58-.547l.362-.24c.06.02.16.102.265.3.152.28.435.428.777.426.693 0 1.372-.147 2.035-.437.287-.12.457-.38.45-.697-.01-.187-.134-.34-.342-.562-.19-.2-.327-.42-.41-.668zM57.187 18.323c-.208-.2-.338-.39-.402-.57-.026-.07-.057-.304-.073-.66-.02-.358-.03-.846-.03-1.465 0-1.25-.116-2.1-.384-2.583-.254-.453-.566-.79-.937-.993-.358-.198-.698-.302-1.02-.302h-.336c-.378 0-.847.197-1.44.57-.287.183-.514.32-.675.41-.082.045-.145.078-.19.098-.023.01-.043.017-.052.022h-.008c-.015 0-.062-.015-.124-.047-.074-.035-.175-.094-.298-.17-.258-.164-.512-.29-.764-.374-.26-.09-.61-.128-1.057-.13-.457 0-.932.112-1.422.33-.24.104-.418.184-.54.236l-.14.058-.016.007c-.01-.004-.026-.016-.05-.043-.037-.043-.082-.125-.13-.24-.106-.25-.202-.42-.333-.515-.088-.056-.19-.072-.346-.093-.152-.016-.352-.025-.602-.025-.504 0-.896.06-1.185.193-.14.065-.246.13-.326.2-.08.07-.14.16-.14.27.004.137.074.297.203.58.195.4.31 1.458.307 3.108 0 .766-.025 1.28-.07 1.517-.04.223-.17.448-.4.676-.258.254-.403.537-.403.84 0 .023.007.047.018.067l.135.233.02.025c.307.31.924.423 1.88.428h.318c.34 0 .598-.037.79-.124.192-.082.326-.25.322-.456 0-.03-.004-.042-.01-.084-.017-.12-.06-.382-.126-.795-.086-.534-.132-1.51-.132-2.92-.002-.693.093-1.18.25-1.44.292-.476.608-.686.968-.688.38.01.58.145.7.457.174.484.268 1.218.268 2.192 0 .98-.027 1.6-.073 1.827-.047.243-.112.448-.19.615l-.227.487c-.01.018-.01.035-.01.055-.005.238.07.445.25.54.107.05.256.064.515.085.255.015.6.023 1.04.023.885-.003 1.44-.045 1.723-.162.13-.055.237-.12.315-.203.077-.083.124-.192.123-.305-.002-.207-.106-.448-.29-.764-.167-.285-.253-.618-.255-1.01-.002-1.714.074-2.786.203-3.148.13-.355.364-.516.81-.523.45.004.732.157.908.47.184.326.282.81.282 1.448l-.05.758-.017.384v.01l.032.73c.007.145.008.408.008.784 0 .372-.016.642-.043.8-.03.178-.048.274-.05.336-.002.197.118.37.3.453.18.087.423.124.74.124.616 0 1.143-.07 1.58-.21.22-.07.392-.155.518-.26.123-.106.204-.247.202-.404.002-.27-.132-.52-.36-.743M72.708 12.09c-.242-.23-.524-.354-.83-.353h-.134c-.442.002-.927.292-1.492.833-.098.096-.178.167-.234.21-.03.023-.05.04-.065.046-.015-.01-.05-.045-.086-.11-.047-.076-.1-.195-.153-.35-.13-.388-.39-.634-.728-.63h-.15c-.664 0-1.298.123-1.898.366-.157.063-.282.137-.374.227-.09.088-.15.206-.148.332.006.21.146.407.383.657.222.23.37.457.45.677.034.093.07.33.088.678.022.348.033.816.033 1.4.002 1.163-.047 1.894-.125 2.126-.083.25-.232.456-.463.623-.26.192-.42.396-.425.638-.004.175.088.336.24.417.146.085.34.117.588.118h.157l1.026-.016c.83 0 1.452-.036 1.88-.105.21-.035.374-.078.498-.138.06-.03.112-.065.154-.113.042-.046.07-.112.07-.18-.007-.252-.176-.503-.474-.83-.29-.308-.46-.54-.5-.64-.15-.372-.233-.98-.233-1.808-.002-.83.09-1.41.246-1.72.237-.475.512-.675.854-.677.11-.003.3.054.547.177.263.13.425.2.56.203.31 0 .584-.118.795-.346.21-.228.32-.52.317-.847.002-.334-.13-.632-.374-.866M80.93 18.6c-.088-.073-.204-.135-.35-.19-.257-.098-.422-.232-.514-.398-.036-.066-.08-.245-.107-.51-.027-.27-.04-.626-.04-1.072 0-.13.004-.287.012-.47l.022-.54.007-.198v-.005c0-.138.005-.272.01-.402l.007-.2v-.007c0-.972-.24-1.726-.743-2.23-.504-.497-1.22-.742-2.128-.74-.907 0-1.727.21-2.45.637-.715.42-1.115.884-1.118 1.42 0 .252.074.47.236.613.16.143.384.202.657.203.388-.003.77-.273 1.177-.764.386-.468.732-.678 1.013-.674.317 0 .546.092.716.273.17.18.258.427.258.766-.002.337-.097.527-.283.64-.214.132-.507.254-.875.362-1.092.308-1.89.68-2.402 1.127-.51.444-.774 1.004-.772 1.648 0 .637.225 1.18.666 1.59.433.408.924.617 1.454.617h.003c.508 0 .876-.045 1.124-.152.224-.097.463-.217.72-.36.245-.14.425-.202.48-.198.01-.002.077.016.166.066.09.052.21.13.35.236.31.23.647.35 1 .35.35 0 .74-.112 1.165-.324.213-.11.383-.227.5-.362.12-.133.19-.29.19-.456 0-.117-.063-.22-.15-.293zm-4.788-.05c-.11 0-.225-.057-.35-.208-.124-.147-.18-.303-.18-.49v-.268c0-.3.168-.62.547-.958.375-.332.784-.492 1.247-.494h.1c.038.004.037.006.05.02.012.02.03.075.03.166v.453l-.007.082-.002.013c.003.567-.08.948-.205 1.123-.275.398-.587.578-.963.58h-.18l-.062-.014-.026-.004zM90.874 18.148c-.235-.186-.368-.353-.41-.476-.197-.553-.302-1.413-.3-2.568-.004-1.172-.12-1.953-.4-2.378-.38-.575-.98-.865-1.744-.86-.485 0-.896.063-1.236.197-.322.13-.616.268-.88.414-.232.133-.404.198-.45.202-.02-.015-.083-.116-.134-.29-.084-.26-.156-.43-.266-.537-.09-.074-.19-.087-.353-.11-.158-.018-.37-.026-.638-.026-.544 0-1.078.086-1.604.257-.16.05-.29.128-.385.24-.09.112-.137.256-.137.41.003.06.02.09.04.13.06.11.183.278.383.525.223.266.37.977.364 2.095l-.016.525c0 .57-.01 1.023-.025 1.36-.015.335-.043.56-.07.643-.056.182-.207.384-.47.59-.292.23-.46.516-.458.835-.004.178.097.34.25.42.156.082.36.114.62.115l.21.01h.484c.78 0 1.368-.037 1.77-.112.2-.038.355-.083.473-.148.113-.06.21-.16.21-.3-.004-.074-.026-.115-.057-.194-.033-.075-.08-.17-.14-.292-.12-.23-.22-.488-.303-.778-.076-.264-.12-.998-.12-2.154 0-.578.014-1.04.04-1.382.027-.34.074-.566.113-.64.196-.392.514-.578 1.03-.583.31 0 .534.04.67.108.218.107.428.36.615.776.18.39.282 1.23.28 2.48 0 .626-.014 1.124-.043 1.49-.025.365-.072.607-.113.684-.055.118-.1.206-.127.268-.013.03-.025.056-.03.074-.006.01-.01.018-.012.027-.002.012-.008.008-.01.054-.003.15.088.287.22.348.133.066.3.09.514.093 1.113 0 1.955-.087 2.54-.267.16-.047.29-.125.38-.24.09-.113.137-.26.136-.418-.005-.227-.16-.413-.412-.617M99.57 18.605c-.088-.075-.203-.136-.35-.19-.258-.1-.422-.233-.513-.4-.036-.065-.082-.244-.106-.51-.026-.267-.04-.625-.04-1.07 0-.13.004-.288.012-.47.01-.186.015-.367.022-.54l.007-.2v-.006c0-.136.006-.27.01-.4l.008-.2v-.008c.002-.972-.24-1.724-.746-2.23-.5-.497-1.217-.74-2.125-.74-.906 0-1.727.21-2.45.637-.717.42-1.113.883-1.12 1.42 0 .25.076.468.236.612.163.143.386.203.66.203.385-.003.766-.274 1.174-.765.385-.468.73-.678 1.013-.674.318 0 .547.092.717.273.17.18.257.426.26.765-.004.336-.1.527-.284.64-.216.13-.51.253-.877.36-1.092.31-1.89.68-2.402 1.128-.51.445-.773 1.005-.772 1.65 0 .635.224 1.177.665 1.59.433.407.924.616 1.454.616h.005c.508 0 .876-.046 1.124-.153.22-.097.46-.217.718-.36.245-.14.423-.202.477-.198.013-.003.08.015.17.065.09.05.207.13.35.235.308.23.644.35.998.35.353 0 .74-.112 1.166-.324.214-.11.38-.227.5-.36.118-.135.187-.292.187-.458 0-.117-.06-.22-.147-.293zm-3.343-2.283v.453l-.006.08v.014c0 .566-.08.947-.205 1.122-.276.398-.588.578-.964.58h-.178l-.063-.016-.028-.002c-.112 0-.224-.057-.35-.208-.124-.147-.18-.303-.18-.49v-.268c-.002-.3.17-.62.548-.958.375-.332.785-.492 1.248-.494h.1c.04.004.035.006.05.022.012.02.03.073.03.164z" fill="#B0B0B0"/><path d="M63.705 19.79c-1.213-.097-1.905-.163-2.04-.19-.255-.054-.444-.13-.557-.213-.114-.084-.153-.162-.154-.26 0-.22.126-.41.44-.59.015-.01.05-.022.096-.036h.145l.965-.065c.614-.03 1.333-.156 1.91-.458.575-.302.832-.692.94-1.418.106-.727.106-1.642.106-1.642 0-.776-.11-1.345-.216-1.78-.254-.778-.422-1.163-1.83-1.565 0 0-1.195-.15-1.875-.096-.68.054-1.27.198-1.27.198-1.147.278-1.384 1.04-1.577 1.464-.163.432-.172 1.722-.172 2.34 0 .617.102 1.372.102 1.372.162.6.3.856.752 1.22-.087.104-.195.224-.327.363-.414.444-.638.79-.642 1.098 0 .488.167.94.493 1.34.156.19.273.34.347.444.04.052.067.093.085.122-.013.048-.062.132-.132.238-.095.148-.233.352-.413.61-.39.565-.595 1.05-.597 1.473 0 .404.148.8.435 1.175.79 1.063 2.07 1.588 3.8 1.588h.354c1.456 0 2.664-.402 3.605-1.208.765-.66 1.152-1.54 1.15-2.612.006-1.077-.473-1.893-1.395-2.388-.467-.255-1.3-.423-2.527-.524zm1.924 3.65c-.003.384-.23.724-.74 1.035-.508.305-1.107.46-1.8.46h-.588c-.68 0-1.237-.148-1.678-.437-.447-.295-.645-.598-.645-.91v-.202c0-.305.138-.556.446-.783.304-.222.723-.338 1.268-.338h1.102l.715.03.16.022h.014c.587 0 1.023.113 1.313.323.3.218.43.453.432.736v.064zm-1.88-8.09c0 .378-.132.685-.455 1.01-.302.302-.708.27-1.173.27h-.157c-.92 0-1.367-.42-1.367-1.28v-.452l.052-.45c0-.31.11-.552.33-.72.31-.24.658-.358 1.058-.358h.22c.355 0 .786.153 1.037.358.38.307.44.993.455 1.064v.557zM30.1 11.293c-1.56.11-1.912.772-1.968.798-.04-.014-.127-.057-.315-.17-.265-.16-.59-.227-.97-.2-1.038.072-1.546.376-1.504.972.016.233.2.32.404.916.135.396.423.845.508 2.06l.072 1.02.075 1.074c.06.87.016 1.59.005 2.584-.01.988.002 1.302-.065 1.776-.066.474-.3 1.463-.357 1.713-.065.277-.095.508-.074.814.033.45.18.616.487.743.305.127 1.525.052 1.525.052 1.123-.078 1.087-.81 1.068-1.085-.008-.112-.077-.456-.354-1.075-.184-.413-.216-2.238.005-2.59.226-.363.955-.468 1.71-.397 1.223.066 1.97-.51 2.467-1.383.496-.873.786-2.02.682-3.5-.055-.77-.19-1.447-.402-2.014-.58-1.543-2.2-2.162-2.997-2.107zm1.18 4.88c.01.576-.12 1.12-.385 1.617-.247.463-.674.607-1.068.613l-.133.003c-.78.013-1.168-.616-1.19-1.923l-.013-.684.018-.52.015-.148v-.017c-.008-.47.08-.838.26-1.095.258-.37.548-.554.887-.56l.186-.003c.3-.006.657.127.875.434.33.46.51 1.042.52 1.533 0 .063.008.146.022.253l.01.498zM22.08 10.25c-1.567-2.02-4.308-3.75-7.34-3.895-.934 0-1.012-1.05-.782-1.478.12-.222.505-.5 1.065-1.005.15-.136.89-.88.68-1.102-.263-.172-1.744 1.216-1.846 1.102-.246-.17.075-.767.505-1.47.43-.7.165-2.175-.17-1.688-.16 1.458-1.49 1.853-1.87 3.158C11.337 1.486 9.79.916 9.79.916c-.627 0 .877 1.677.982 2.383.106.706-.347.572-.515.46-.235-.187-2.02-1.357-2.375-1.273-.724.283 1.77 1.462 2.037 2.39 0 0 .337 1.333-1.115 1.478-2.67.365-4.943 1.168-6.758 3.57C.604 11.833 0 14.377 0 16.888c0 5.175 1.644 6.933 7.36 9.76 1.182.582 4.093 1.056 6.26.99 3.565-.112 5.032-1.38 6.99-3.136 2.638-2.362 3.358-4.91 3.045-8.388-.207-2.29-.345-4.276-1.574-5.863zm-6.828 7.934v-1.13c-.03-.144-.163-1.537-.98-2.16-.538-.415-1.466-.727-2.23-.727h-.473c-.632 0-1.202.128-1.726.39-.087.218-.224.493-.224.762l-.113.915v.914c0 1.75.886 2.653 2.865 2.653h.5c.753 0 1.442-.048 2.01-.29.258-.416.37-.843.37-1.33z" fill="#B0B0B0"/><path d="M14.173 20.5c-.65.613-1.522.547-2.524.547h-.338c-2.123 0-3.053-1.087-3.053-2.837v-.915l.11-.915c0-.627.45-1.19.92-1.53.18-.13.387-.208.577-.304-.087.218-.154.428-.154.697l-.112.916v.913c0 1.75.79 2.6 2.942 2.6h.338c.753 0 1.437.06 2.004-.184-.15.24-.454.767-.71 1.01z" fill="#D2D2D2"/></g></svg>