<svg width="100" height="26" viewBox="0 0 100 26" xmlns="http://www.w3.org/2000/svg"><title>Pumgrana Logo</title><g fill="#D8D8D8" fill-rule="evenodd"><path d="M44.783 17.85c-.176-.185-.3-.388-.377-.615-.075-.215-.118-.672-.117-1.34l.1-2.64v-.004c-.002-.605-.024-.995-.083-1.204-.03-.108-.085-.202-.168-.266-.083-.062-.186-.09-.295-.09-.605 0-1.198.07-1.777.21-.19.046-.344.114-.455.216-.112.102-.174.248-.172.402.006.07.026.102.057.183.03.08.08.18.14.31.123.25.23.506.324.77.086.23.138.828.136 1.75.002.92-.063 1.52-.166 1.75-.11.25-.276.434-.51.564-.24.13-.496.198-.775.198-.395-.007-.637-.178-.8-.575-.157-.396-.246-1.258-.246-2.55l-.038-1.637c-.004-.634-.042-1.026-.164-1.24-.142-.22-.42-.292-.806-.294-.463 0-.837.01-1.12.026-.283.02-.472.04-.59.086-.215.07-.366.24-.362.456.002.218.137.405.356.57.19.143.298.298.343.47.112.434.173 1.252.17 2.43.003 1.193.137 2.035.435 2.546.44.75 1.133 1.134 2.02 1.134h.22c.436 0 .92-.172 1.455-.503l.332-.22c.055.018.146.095.244.275.14.26.4.395.715.394.64 0 1.263-.136 1.874-.402.264-.11.42-.35.414-.642-.01-.172-.124-.313-.315-.517M58.472 17.857c-.19-.183-.31-.36-.37-.524-.024-.064-.052-.28-.067-.608-.018-.33-.027-.778-.027-1.347 0-1.15-.107-1.93-.354-2.377-.234-.416-.52-.725-.862-.912-.33-.183-.643-.278-.94-.278h-.31c-.346 0-.777.182-1.322.524-.265.17-.474.294-.622.377-.074.043-.132.073-.174.092-.02.01-.04.015-.048.02h-.007c-.015 0-.058-.014-.115-.043-.068-.034-.16-.087-.274-.16-.237-.15-.47-.264-.702-.34-.24-.083-.562-.118-.973-.12-.42 0-.857.103-1.308.302-.22.097-.385.17-.497.218-.056.023-.098.04-.128.054l-.015.006c-.01-.005-.023-.015-.044-.04-.035-.04-.076-.116-.12-.22-.098-.232-.186-.386-.307-.475-.08-.052-.175-.067-.318-.085-.142-.015-.325-.022-.555-.022-.464 0-.825.055-1.09.177-.13.06-.227.12-.3.185-.074.065-.13.148-.13.25.005.124.07.27.188.53.18.368.286 1.342.283 2.86 0 .705-.023 1.177-.064 1.396-.04.205-.158.412-.368.622-.24.234-.372.495-.372.775 0 .02.006.042.017.06l.123.214.02.024c.282.285.85.39 1.728.394h.293c.313 0 .55-.034.727-.113.178-.074.3-.23.298-.418-.002-.028-.005-.04-.01-.078-.016-.11-.054-.35-.116-.73-.08-.492-.123-1.39-.123-2.686-.002-.64.085-1.087.23-1.327.268-.436.56-.63.89-.63.35.007.534.132.644.42.16.445.248 1.12.248 2.016 0 .9-.025 1.472-.067 1.68-.044.225-.104.413-.175.567l-.21.448c-.007.017-.01.033-.01.05-.003.22.066.41.232.497.098.046.235.06.474.08.235.013.553.02.957.02.814-.002 1.327-.04 1.586-.15.12-.05.216-.11.288-.186.072-.075.116-.175.114-.28 0-.19-.096-.41-.267-.702-.153-.262-.232-.568-.234-.93 0-1.576.068-2.563.187-2.896.12-.326.335-.474.745-.48.415.003.673.144.836.432.17.3.26.744.26 1.332l-.046.696-.016.354v.01l.03.67c.007.134.008.376.008.722 0 .342-.014.59-.04.737-.028.163-.043.25-.045.308-.002.18.11.34.276.417.167.08.39.114.68.114.568 0 1.053-.063 1.456-.193.2-.064.36-.14.476-.238.113-.098.187-.227.185-.372.002-.247-.12-.478-.33-.683M73.89 12.152c-.22-.214-.48-.327-.763-.325h-.122c-.407 0-.853.268-1.373.765-.09.088-.164.154-.216.195-.027.02-.046.034-.06.04-.013-.01-.044-.04-.08-.1-.042-.07-.09-.18-.14-.322-.12-.358-.357-.583-.67-.578h-.138c-.61 0-1.193.11-1.745.335-.145.058-.26.126-.344.21-.085.08-.14.19-.137.305.006.194.134.375.352.605.206.213.34.42.415.623.03.086.064.304.08.624.02.32.03.75.03 1.287.003 1.07-.043 1.743-.114 1.956-.077.23-.214.418-.426.572-.24.177-.388.364-.392.588-.003.16.082.307.22.382.136.078.315.108.542.11h.145l.944-.016c.76 0 1.334-.034 1.727-.097.194-.032.345-.072.46-.127.054-.03.102-.06.14-.103.04-.043.066-.104.065-.167-.006-.23-.16-.462-.436-.764-.267-.282-.424-.495-.46-.59-.138-.34-.214-.898-.214-1.66-.002-.765.082-1.3.227-1.583.218-.438.47-.622.785-.624.102-.002.277.05.503.163.24.118.39.183.516.187.284 0 .535-.11.73-.32.193-.21.293-.477.292-.778 0-.31-.12-.583-.345-.798M82.02 18.168c-.08-.068-.185-.125-.32-.176-.237-.09-.39-.213-.473-.366-.033-.06-.074-.225-.098-.47-.025-.246-.038-.574-.038-.985 0-.118.005-.263.01-.43.01-.172.015-.338.022-.498l.007-.183v-.005c0-.127.004-.25.008-.37l.007-.184v-.005c0-.895-.222-1.588-.684-2.05-.462-.46-1.12-.684-1.956-.683-.835 0-1.59.194-2.254.586-.658.387-1.026.814-1.028 1.307-.002.232.067.43.216.563.148.132.353.187.605.188.356-.004.706-.252 1.082-.704.355-.43.673-.624.93-.62.294 0 .504.084.66.25.157.168.238.394.238.705-.002.31-.09.484-.26.59-.2.12-.468.232-.806.33-1.005.285-1.74.626-2.21 1.038-.47.41-.712.925-.71 1.517-.002.586.206 1.085.61 1.463.4.375.85.568 1.34.568h.002c.466 0 .804-.04 1.033-.14.206-.09.425-.2.662-.332.226-.127.39-.184.44-.18.01-.003.072.014.154.06.083.047.192.12.323.216.284.213.594.323.917.322.324 0 .682-.102 1.073-.298.196-.1.352-.21.46-.332.11-.123.174-.268.174-.42 0-.108-.057-.202-.136-.27zm-4.403-.047c-.103 0-.207-.05-.323-.19-.113-.135-.165-.28-.165-.45v-.247c0-.277.154-.57.502-.882.347-.304.723-.452 1.15-.454h.092c.033.005.033.006.045.02.01.02.026.068.026.152v.416l-.006.075-.002.01c.003.522-.074.873-.188 1.034-.254.366-.54.532-.887.533H77.7l-.06-.012-.023-.004zM91.51 17.75c-.216-.17-.338-.325-.376-.437-.182-.51-.28-1.3-.277-2.362-.003-1.078-.11-1.796-.368-2.188-.35-.53-.9-.795-1.605-.792-.446 0-.825.06-1.137.182-.297.12-.567.247-.81.38-.213.124-.372.183-.413.187-.02-.014-.078-.107-.124-.267-.076-.24-.142-.396-.243-.493-.084-.068-.177-.08-.325-.1-.147-.018-.34-.026-.59-.026-.5 0-.99.08-1.474.236-.146.046-.267.12-.354.223-.084.102-.126.234-.126.376.003.055.02.08.036.118.056.102.17.256.353.483.206.246.34.9.336 1.93l-.015.482c0 .526-.01.942-.023 1.252-.014.308-.04.514-.066.59-.05.17-.19.355-.43.545-.27.21-.425.473-.423.766-.004.164.09.312.23.386.144.076.33.105.57.106l.195.008h.444c.718 0 1.26-.033 1.628-.102.184-.035.328-.077.436-.136.104-.056.193-.15.193-.277-.003-.067-.023-.105-.052-.177-.03-.07-.072-.158-.13-.268-.11-.21-.202-.45-.277-.717-.07-.242-.11-.918-.11-1.98 0-.533.012-.958.038-1.272.024-.313.068-.52.104-.59.18-.36.472-.53.95-.536.283 0 .49.038.613.1.2.1.395.33.567.714.164.36.258 1.132.257 2.28 0 .578-.013 1.036-.04 1.374-.023.335-.065.557-.103.628-.05.11-.09.19-.117.246l-.03.07c-.003.01-.007.016-.01.023 0 .012-.006.008-.01.05 0 .138.083.263.205.32.122.06.275.083.472.085 1.025-.002 1.8-.08 2.338-.246.146-.044.267-.115.35-.22.084-.105.126-.24.124-.386-.005-.208-.148-.38-.38-.568M99.852 18.168c-.08-.07-.186-.125-.32-.176-.24-.09-.39-.213-.474-.366-.033-.06-.075-.225-.097-.47-.024-.246-.037-.574-.037-.985 0-.118.004-.263.012-.43l.02-.498.006-.183v-.007c0-.124.005-.248.01-.368l.007-.184v-.005c.002-.895-.223-1.587-.687-2.05-.46-.46-1.12-.683-1.955-.683-.834 0-1.59.194-2.254.586-.66.387-1.024.814-1.03 1.307 0 .232.07.43.218.564.15.13.355.186.607.186.354-.004.705-.252 1.08-.704.354-.43.672-.624.932-.62.292 0 .503.084.66.25.156.168.236.394.238.705-.003.31-.09.485-.26.59-.2.12-.47.232-.808.33-1.004.286-1.74.626-2.21 1.038-.468.41-.71.925-.71 1.517 0 .585.206 1.084.612 1.463.398.375.85.568 1.337.568h.004c.468 0 .806-.04 1.035-.14.204-.09.424-.2.66-.332.227-.127.39-.184.44-.18.012-.003.074.014.155.06.084.047.192.12.324.216.283.212.592.322.918.322.325 0 .68-.102 1.072-.298.198-.1.352-.21.46-.332.11-.123.174-.268.174-.42 0-.108-.057-.202-.136-.27zm-3.075-2.1v.416l-.006.075v.01c0 .522-.074.873-.19 1.034-.253.366-.54.532-.885.533h-.165l-.058-.014-.025-.002c-.103 0-.206-.05-.322-.19-.114-.135-.166-.28-.166-.45v-.247c-.003-.277.155-.57.504-.882.344-.304.722-.452 1.148-.454h.092c.036.005.032.006.046.02.01.02.028.068.027.152zM35.573 10.39c0-1.218-.96-2.222-2.168-2.28-.004-.005-.005-.008-.01-.012h-3.503c-1.23 0-2.247 1.053-2.247 2.324v7.562c0 .77.607 1.397 1.336 1.397.745 0 1.29-.627 1.29-1.396v-1.58h1.64c.607 0 1.123-.202 1.564-.658l1.32-1.304c.51-.51.79-1.447.777-2.342l.003-.002V10.39zM32.82 13.66h-2.518v-2.844l2.52.033v2.81zM66.933 19.69c-.43-.235-1.196-.39-2.324-.483-1.117-.09-1.754-.15-1.88-.175-.233-.05-.407-.12-.51-.196-.105-.077-.14-.15-.142-.24 0-.2.116-.377.405-.54.013-.01.045-.022.088-.035H64.55c.973 0 1.754-.823 1.754-1.817V13.32c0-.98-.76-1.79-1.754-1.79h-1.535v.002c-.493.003-.91.182-1.267.525l-1.192 1.233c-.35.344-.514.914-.523 1.507v1.407c0 .568.267 1.086.683 1.423-.08.094-.18.204-.302.332-.38.41-.585.727-.59 1.01 0 .45.154.864.454 1.232.143.176.25.313.32.41.035.048.06.085.077.112.004.003.006.007.007.01-.018.035-.063.113-.127.21-.088.136-.215.323-.38.562-.36.52-.548.966-.55 1.354 0 .37.136.734.4 1.08.728.978 1.905 1.46 3.496 1.46h.327c1.34 0 2.45-.37 3.316-1.11.702-.606 1.06-1.416 1.057-2.404.005-.99-.435-1.74-1.284-2.196zm-4.817-6h2.11v2.147h-2.11V13.69zm4.263 8.875c-.003.353-.212.666-.68.952-.47.28-1.02.423-1.656.423h-.542c-.626 0-1.138-.136-1.544-.402-.412-.27-.594-.55-.594-.837v-.184c.002-.28.13-.512.412-.722.28-.204.665-.31 1.167-.31h1.014l.657.028.147.02h.013c.54 0 .942.104 1.208.296.276.2.397.417.4.678v.06zM22.76 14.907c-.2-2.204-.332-4.114-1.515-5.64-1.51-1.947-4.097-3.422-7.014-3.89-1.345-.454-.777-1.538-.777-1.538.31-.59.822-.498 1.174-1.08.06-.097.365-.394.424-.474.03-.083.096-.182.06-.218-.384.127-1.203.71-1.61.754.004-.163.017-.272.405-.97.416-.55.372-.824.392-1.503-.074-.053-.256-.303-.387-.282.02 1.063-1.575 1.863-1.987 2.72-.075-.143-.093-.35-.17-.507-.376-1.074-1.357-1.72-2.34-1.985L9.316.31c-.31.075.836 1.71.812 2.03-.025.318-.156.87-.26.68.108.195-.938-.73-1.363-.92-.425-.19-.888-.27-.888-.27-.85-.19.622.92.79 1.093.18.183.278.273.388.426.108.152.623.428.75.745 0 0 .3.955-1.073 1.423-2.57.35-4.756 1.123-6.503 3.434C.58 10.788 0 13.236 0 15.652c0 4.98 1.58 6.67 7.082 9.39 1.136.56 3.938 1.017 6.02.952 3.433-.107 4.844-1.327 6.73-3.016 2.536-2.273 3.23-4.726 2.928-8.07zm-12.628-3.032c-1.15 0-2.102.97-2.102 2.175v3.38c0 1.217.952 2.172 2.102 2.172H13.3c1.135 0 2.1-.955 2.1-2.173v-3.38c0-1.205-.965-2.175-2.1-2.175H10.13z"/></g></svg>